<svg width="53" height="91" viewBox="0 0 53 91" fill="none" xmlns="http://www.w3.org/2000/svg">
<path fill-rule="evenodd" clip-rule="evenodd" d="M2.43996 3.51102V89.599C18.4239 86.0427 34.2573 86.5473 50.1535 87.4781C50.1266 87.1695 50.1135 86.8775 50.0735 86.5895C49.2992 80.979 49.0768 75.339 49.1719 69.6809C49.3951 56.4067 49.7051 43.1338 49.8055 29.8587C49.8581 22.9116 49.5538 15.962 49.3861 9.01445C49.338 7.02016 49.2037 5.02876 49.0952 2.74863C33.4005 1.36036 17.7887 1.42117 2.43996 3.51102ZM0.968371 48.8825C0.968371 36.9035 0.951236 24.9249 0.981019 12.9464C0.987546 10.1959 1.15278 7.44665 1.25029 4.69659C1.27558 3.98549 1.35065 3.5619 2.29635 3.27398C6.30478 2.05325 10.4348 1.83153 14.5444 1.44516C24.2748 0.529713 34.0333 0.700144 43.7861 0.799838C45.496 0.817626 47.2062 1.16221 48.9092 1.40297C49.6293 1.50431 50.2404 1.81332 50.3098 2.7023C50.6712 7.33165 51.2759 11.956 51.3591 16.5899C51.5411 26.7401 51.5015 36.8957 51.4741 47.0487C51.4472 56.906 51.2277 66.7637 51.2889 76.6202C51.313 80.3994 51.8564 84.1779 52.2114 87.9518C52.3668 89.6035 52.2342 89.8273 50.657 89.7682C42.962 89.4794 35.2691 89.1452 27.5729 88.9057C20.8453 88.6968 14.1723 89.3789 7.51812 90.3303C6.2191 90.5157 4.885 90.4387 3.56967 90.5198C3.07274 90.5508 2.56807 90.6406 2.09195 90.7862C1.30659 91.0261 0.877391 90.7465 0.774171 89.9539C0.72195 89.5506 0.743573 89.1369 0.743573 88.7278C0.742349 75.4458 0.742757 62.1641 0.742757 48.8821C0.817826 48.8821 0.892894 48.8825 0.968371 48.8825Z" fill="#02374E"/>
</svg>
