<svg width="179" height="143" viewBox="0 0 179 143" fill="none" xmlns="http://www.w3.org/2000/svg">
<mask id="mask0_2_260" style="mask-type:luminance" maskUnits="userSpaceOnUse" x="0" y="0" width="179" height="143">
<path d="M0 0.38916H178.887V142.863H0V0.38916Z" fill="white"/>
</mask>
<g mask="url(#mask0_2_260)">
<path fill-rule="evenodd" clip-rule="evenodd" d="M161.906 47.3876C160.144 45.05 158.383 42.7121 156.567 40.3014C159.919 41.5319 160.957 44.4245 161.906 47.3876ZM149.388 37.9275C153.335 37.8535 155.671 40.2738 157.621 43.4888C154.805 41.5862 152.083 39.7486 149.388 37.9275ZM147.06 41.7159C142.838 40.5647 138.637 39.4187 134.419 38.2683C134.989 38.2263 135.587 38.0769 136.151 38.1579C139.987 38.7081 143.598 39.9645 147.06 41.7159ZM120.607 41.8057C120.469 39.0906 120.599 36.5095 123.045 34.5908C125.749 32.4714 128.69 30.7918 131.789 29.3191C127.867 33.2906 123.357 36.7268 120.607 41.8057ZM119.304 43.2233C118.771 43.1716 118.237 43.0695 117.704 43.0765C115.769 43.1024 113.835 43.1646 111.899 43.2132C111.471 43.2233 110.963 43.388 110.625 43.2172C108.471 42.1299 106.178 41.8456 103.549 41.9678C105.5 40.2287 107.203 38.6946 108.927 37.1859C109.413 36.7605 110.02 36.9668 111.292 37.9358C110.051 38.7905 108.839 39.6263 107.626 40.4617C107.737 40.6256 107.848 40.7898 107.959 40.9541C109.134 40.2168 110.324 39.5006 111.478 38.7314C111.977 38.3984 112.401 38.0782 112.889 38.8015C112.04 39.5374 111.191 40.2729 110.343 41.008C110.443 41.1372 110.544 41.2665 110.644 41.3961C111.042 41.1486 111.459 40.927 111.834 40.6483C113.969 39.0621 113.966 39.0573 116.254 40.7193C115.897 41.1666 115.542 41.6103 115.188 42.0545C115.256 42.1242 115.324 42.1943 115.392 42.2635C115.84 41.8662 116.289 41.4684 116.922 40.9064C117.724 41.5556 118.579 42.2477 119.434 42.9403C119.391 43.0341 119.347 43.1287 119.304 43.2233ZM118.285 45.6191C118.309 46.0593 118.354 46.4992 118.354 46.939C118.348 57.6449 118.365 68.3508 118.307 79.0567C118.295 81.3184 118.025 83.5802 117.827 85.8375C117.795 86.1981 117.588 86.6081 117.335 86.8744C111.633 92.865 104.858 97.0507 96.772 98.9786C92.7775 99.931 88.7117 100.316 84.6096 100.43C78.6825 100.595 72.7322 100.744 66.9289 99.408C63.7064 98.6663 60.6144 97.3245 57.504 96.1457C56.0243 95.5849 54.6584 94.7312 53.2045 94.0938C52.5297 93.7972 52.2395 93.3894 52.1817 92.6749C51.8977 89.1476 51.3734 85.6259 51.3209 82.0964C51.1883 73.184 51.2609 64.2671 51.2557 55.3525C51.2552 54.9714 51.2959 54.5911 51.3169 54.2104C53.5468 58.6603 55.5057 63.1212 57.999 67.306C58.1334 67.2416 58.2664 67.1776 58.4003 67.1133C56.1552 62.3594 53.91 57.605 51.5813 52.6737H54.0054C54.0273 56.1068 58.8095 63.7826 61.5799 64.6872C58.7492 61.1078 56.0278 57.4653 54.3792 52.76C55.5136 53.0005 56.3425 53.1521 57.1535 53.3694C57.322 53.4145 57.5154 53.6909 57.5443 53.8836C58.0283 57.0706 59.8074 59.7196 61.144 62.5468C61.9081 64.1629 62.8036 65.718 63.6793 67.278C63.899 67.67 64.2688 67.9771 64.699 68.4717C64.7778 68.042 64.8159 67.8339 64.8566 67.6148C65.0483 67.6674 65.2304 67.7169 65.5306 67.7993C65.4221 67.4777 65.3573 67.228 65.2553 66.9945C63.892 63.861 62.4959 60.7416 61.1737 57.5914C60.8306 56.774 60.7125 55.862 60.4761 54.9346C62.2705 55.0638 63.2228 56.0626 63.6198 57.4771C64.4133 60.3053 65.3708 63.0887 66.2882 65.881C66.5735 66.7483 66.8667 67.6315 67.3009 68.4283C68.399 70.4434 69.5789 72.4134 70.8472 74.3768C70.1465 70.0295 69.2336 65.7149 69.2388 61.2909C70.7023 61.262 71.4048 62.0172 71.2118 63.3253C70.733 66.5709 71.1899 69.7487 71.8862 72.9071C71.972 73.2974 72.2262 73.651 72.5724 73.9817C72.1365 70.3931 71.5553 66.8421 71.6831 63.1431C73.2398 64.0963 73.4438 64.6325 73.1698 66.2056C72.5724 69.6352 72.9869 73.0355 73.5777 76.4213C73.6254 76.6977 73.828 76.947 73.9593 77.2089C74.0561 77.187 74.1528 77.1656 74.2499 77.1437C74.0998 75.6358 73.9987 74.1214 73.7843 72.6233C73.6145 71.4322 73.8657 70.5157 75.1357 69.9011C75.1821 73.5248 75.0613 77.1152 76.1419 80.6193C75.966 78.9419 76.8356 77.7105 77.7464 76.2745C78.0925 78.4859 78.4129 80.5321 78.7333 82.5783H79.2195C79.1355 81.0985 78.5529 79.4466 80.2195 78.7444C81.2857 79.9928 81.4467 81.8621 82.9085 82.8512C83.0275 82.7864 83.1452 82.7211 83.2643 82.6563C82.771 81.495 82.2778 80.3341 81.785 79.1732C82.7802 80.2907 83.0577 81.8568 84.4079 82.6887C83.828 80.604 81.4436 78.9353 83.2468 76.1374C84.3711 77.9589 85.4215 79.6612 86.4727 81.3636L86.7029 81.3438C86.7029 81.0407 86.8202 80.6635 86.6841 80.4462C85.6381 78.7759 86.3257 77.0578 86.4653 75.3507C86.6749 72.7779 86.8583 70.2029 87.0417 67.628C87.0592 67.3778 86.9983 67.1216 86.7292 66.8552C86.4123 69.3759 86.0955 71.8965 85.7668 74.5109C84.1278 73.2869 84.1278 73.2869 84.5961 71.8168C84.8004 71.8698 85.0061 71.9232 85.365 72.0165C84.3628 70.9433 84.4761 69.9331 85.1103 68.8909C86.3379 66.8736 87.5541 64.8502 88.9122 62.8736C89.3512 67.6591 88.7503 72.3819 88.5279 77.1112C88.6404 77.1594 88.7529 77.2076 88.8654 77.2562C89.0588 76.908 89.3844 76.5746 89.4247 76.2097C89.9039 71.8216 90.3862 67.43 89.7065 63.0173C89.4973 61.6576 90.289 60.1419 91.9044 59.1856C91.9941 63.9425 91.5171 68.5269 91.0667 73.1126C91.1836 73.1546 91.3005 73.1971 91.4169 73.2396C91.6318 72.6846 91.9407 72.1462 92.0401 71.571C92.2497 70.3589 92.4707 69.1288 92.4707 67.9057C92.4703 65.0526 92.4672 62.1885 92.2173 59.3507C92.0782 57.7732 93.2353 57.2844 93.9745 56.3684C94.3224 60.7718 93.6152 65.0583 92.8025 69.3364C92.936 69.3859 93.0695 69.4346 93.2029 69.4836C93.4489 69.0013 93.8227 68.544 93.9216 68.0328C94.6507 64.2842 95.326 60.5291 94.6993 56.6807C94.4581 55.1965 95.0525 54.5061 96.9996 54.051C97.0512 59.4291 95.9768 64.6058 94.8813 70.0807C95.2932 69.7294 95.5142 69.6216 95.6122 69.4451C98.1418 64.9221 100.735 60.4262 102.095 55.3661C102.68 53.1884 103.2 50.9937 103.782 48.8157C103.866 48.5042 104.072 48.1406 104.331 47.9768C105.196 47.4309 106.112 46.9648 107.319 46.2955C107.187 47.2228 107.221 47.9071 106.988 48.4814C105.31 52.5984 103.579 56.6934 101.858 60.7924C101.694 61.1831 101.476 61.5511 101.142 62.2078C101.701 61.9397 101.98 61.8052 102.305 61.6493V62.5276C102.382 62.5727 102.458 62.6174 102.535 62.6621C102.9 62.2297 103.363 61.8477 103.613 61.3562C105.841 56.9624 108.044 52.5554 110.22 48.1353C110.514 47.5391 110.788 46.847 110.777 46.2039C110.756 44.9615 111.499 44.6917 112.457 44.5379C113.035 44.4451 113.61 44.3373 114.52 44.1783C114.219 45.1284 114.081 45.8951 113.748 46.5649C111.865 50.352 109.673 53.9428 106.849 57.1166C106.526 57.4793 106.227 57.8635 105.918 58.2385L106.182 58.5372C106.71 58.1824 107.319 57.9055 107.754 57.4591C110.615 54.528 112.845 51.1479 114.513 47.42C114.947 46.4488 114.988 45.3015 115.243 44.0731C115.869 44.0337 116.719 43.9798 117.928 43.9027C115.262 49.9209 112.458 55.5807 109.76 61.2883C109.864 61.3619 109.968 61.4359 110.072 61.5095C110.444 61.0097 110.904 60.5528 111.172 60.0017C113.399 55.4287 115.591 50.8391 117.791 46.253C117.891 46.0458 117.968 45.828 118.285 45.6191ZM119.697 91.4833C121.533 92.7734 123.48 93.1029 125.677 92.7765C126.173 105.95 124.534 118.906 123.446 131.998C119.525 130.594 115.85 129.01 111.54 129.624C115.859 117.136 117.45 104.341 119.697 91.4833ZM105.536 108.446C98.2731 114.044 89.9656 115.889 80.8926 114.169C75.0316 113.057 69.5412 111.107 64.7783 107.422C60.554 104.154 56.5854 100.614 53.4312 96.2508C53.2212 95.9608 53.0238 95.662 52.8325 95.3598C52.8001 95.3085 52.8281 95.2192 52.8281 94.9848C53.7442 95.5157 54.5801 96.0134 55.4274 96.4891C59.1479 98.5765 62.9585 100.525 67.2024 101.212C70.7207 101.783 74.2924 102.175 77.8523 102.309C83.5317 102.523 89.2238 102.454 94.845 101.413C103.096 99.8854 110.43 96.5242 116.403 90.4837C116.599 90.2857 116.796 90.089 117.002 89.9019C117.054 89.8546 117.142 89.848 117.511 89.7175C117.228 91.3453 117.315 93.0082 116.651 94.2782C113.833 99.673 110.373 104.717 105.536 108.446ZM56.9622 124.831C53.352 124.481 50.2556 125.71 46.915 126.954C46.1413 116.825 44.8125 106.834 45.0099 96.748C47.9124 96.4418 47.9124 96.4418 50.4771 94.9607C52.2154 105.014 53.5669 115.019 56.9622 124.831ZM50.2307 51.8659C51.0732 51.1462 51.7318 50.5841 52.4299 49.9879C52.9065 50.419 53.2684 50.7475 53.6308 51.0756C53.6772 51.0371 53.7236 50.999 53.77 50.9604C53.5428 50.6253 53.3166 50.2902 53.0934 49.9603C54.861 47.5107 56.2353 49.6375 57.7185 50.4571C57.7942 50.3445 57.8699 50.2319 57.9461 50.1193C57.2738 49.506 56.6016 48.8928 55.9298 48.2795C56.5246 47.8265 56.5149 47.8401 57.9421 48.7885C58.5828 49.2147 59.2682 49.5735 59.9339 49.963C60.0162 49.8315 60.0984 49.7006 60.1803 49.5691C59.1982 48.8954 58.217 48.2212 57.2051 47.5269C58.6463 46.4431 58.7312 46.4667 59.8744 47.5032C61.0696 48.5861 62.3073 49.6221 63.4732 50.9416C63.0627 50.9416 62.6465 50.8973 62.2429 50.9504C61.1847 51.0897 60.0481 51.0761 59.0993 51.4861C57.936 51.989 56.8458 51.9772 55.6449 51.8948C53.9582 51.7792 52.2575 51.8659 50.2307 51.8659ZM53.0675 47.9531C52.1559 48.6181 51.4377 49.1416 50.6854 49.6905C50.7187 48.1472 50.7694 48.1091 53.0675 47.9531ZM52.7717 43.6193C53.756 41.7163 54.8759 39.8839 55.914 38.0086C56.2064 37.4798 56.5228 37.3694 57.1513 37.4505C58.5229 37.6274 59.9177 37.6283 61.3037 37.6875C61.8044 37.7089 62.3073 37.691 62.8587 37.691C62.4788 38.642 62.4784 38.6398 59.8984 39.332C58.789 39.6294 57.6826 39.9395 56.6073 40.428C57.5347 40.2703 58.4625 40.1126 59.5094 39.9343C59.466 40.2598 59.4319 40.5068 59.3986 40.7526C58.9212 41.3195 58.287 41.7286 58.1364 42.5991C58.0721 42.9705 57.3754 43.3481 56.8953 43.508C55.7442 43.8913 54.5508 44.1472 53.4255 44.6882C54.672 44.4359 55.9184 44.1835 57.1648 43.9303L57.413 44.2383C57.0532 44.7469 56.8042 45.4807 56.3132 45.7225C54.7687 46.4821 53.1332 47.0564 51.5331 47.703C51.4233 47.5899 51.313 47.4774 51.2027 47.3643C51.7191 46.1132 52.152 44.8179 52.7717 43.6193ZM57.3635 45.2756C57.3228 44.0193 58.1382 43.6119 59.0813 43.296C58.1592 42.7221 58.42 42.1461 59.7978 41.3909C59.6717 41.1674 59.5474 40.9467 59.4231 40.7254C59.4196 40.7294 59.4166 40.7325 59.4135 40.736C59.9829 39.8191 60.7282 39.2163 62.2364 39.3793C60.3046 41.2397 60.3763 44.3649 57.3635 45.2756ZM62.3764 46.6253C63.4828 47.7043 64.664 48.7096 65.8391 49.7146C66.1468 49.9778 66.5556 50.1228 66.9171 50.3217L67.1044 50.0703C65.4824 48.633 63.8605 47.1961 62.207 45.7308C63.6714 44.7679 63.7988 44.8297 64.9262 45.8364C66.6138 47.342 68.3635 48.7797 70.101 50.228C70.3907 50.4689 70.7557 50.6179 71.0866 50.8097C71.1522 50.7256 71.2174 50.642 71.2835 50.5583C69.1294 48.7166 66.9753 46.8755 64.7546 44.9769C66.507 44.1507 66.6926 44.2598 67.7976 45.4811C69.4222 47.2763 71.1452 48.9826 72.8232 50.7291C73.0897 51.0069 73.3409 51.2999 73.7151 51.7139C70.6069 51.4515 67.7276 51.2128 64.8487 50.9591C64.6238 50.939 64.3559 50.8733 64.1957 50.7304C62.6596 49.3619 61.1431 47.9719 59.6113 46.5798C60.9449 45.5306 61.3116 45.5867 62.3764 46.6253ZM64.5349 40.5143C64.5888 40.5669 64.6426 40.619 64.6964 40.6716C64.1931 41.3769 63.6903 42.0821 63.187 42.787L61.4967 43.7573L61.2661 43.462C62.3554 42.4795 63.4447 41.4969 64.5349 40.5143ZM78.1319 35.8138C76.8054 36.9248 75.6793 38.2416 74.2548 38.9797C71.5702 40.3702 68.7132 41.4277 65.8934 42.5373C67.198 40.8472 75.1668 36.5283 78.1319 35.8138ZM75.7476 39.9347C76.8422 39.1318 77.9372 38.3288 79.0313 37.5258C78.3004 39.837 78.0755 40.0044 75.7476 39.9347ZM83.4323 35.2925C82.2056 37.4951 79.7639 40.1297 78.795 40.1305C80.0554 38.196 80.5556 35.7481 83.4323 35.2925ZM84.519 35.1637C84.9532 34.6271 85.7738 34.4046 86.4184 34.0384L86.7979 34.4313C86.527 35.0678 86.309 35.7337 85.9747 36.3351C85.186 37.7514 84.3208 39.1243 83.5308 40.5397C83.1571 41.2086 82.7509 41.5372 81.9342 41.273C81.4629 41.1201 80.9198 41.1915 80.1469 41.1473C80.5714 40.6019 80.9084 40.1998 81.2113 39.774C82.3084 38.2324 83.3304 36.6304 84.519 35.1637ZM88.2124 33.8574C88.8654 33.7313 89.5477 33.7597 90.3424 33.7177C89.7748 35.3845 85.2753 41.2213 83.8127 42.0414C84.1357 41.4281 84.3068 41.072 84.505 40.7311C85.6596 38.7449 87.0242 36.8634 87.373 34.4931C87.4106 34.2368 87.8929 33.9196 88.2124 33.8574ZM108.294 45.9503C108.86 45.6379 109.497 45.4557 110.106 45.2213C110.215 45.3102 110.323 45.3992 110.433 45.4881C109.183 48.1813 107.933 50.8741 106.683 53.5674C106.579 53.503 106.477 53.4386 106.373 53.3742C106.659 52.6045 107.048 51.8554 107.208 51.0603C107.494 49.644 107.624 48.1975 107.86 46.7699C107.909 46.4733 108.065 46.0773 108.294 45.9503ZM100.489 48.0512C99.9432 48.3618 99.3668 48.6934 98.7638 48.8161C94.7207 49.6362 90.9543 51.2005 87.2767 53.0053C85.4595 53.8968 83.6393 54.7931 81.8922 55.8111C80.8751 56.4038 80.0423 56.2934 78.9722 55.5728C86.3541 51.3078 93.5675 47.0073 102.284 46.1014C100.174 45.2862 97.4083 45.8929 88.7594 49.0154C88.524 48.711 88.2697 48.3824 87.8356 47.8204C88.7021 47.7262 89.3253 47.6587 90.0689 47.5781C90.1604 47.4857 90.3525 47.13 90.633 47.0336C96.144 45.1425 101.794 43.9636 107.636 43.8107C107.817 43.8059 108 43.8475 108.496 43.9027C106.93 44.6041 105.616 45.1192 104.372 45.7711C103.045 46.4667 101.794 47.3096 100.489 48.0512ZM99.341 58.2989C99.8036 56.056 100.49 53.8298 99.9879 51.4844C99.9375 51.2482 100.118 50.8487 100.321 50.691C101.158 50.0392 102.046 49.4504 103.064 48.93C101.988 53.694 100.181 58.1745 98.2946 62.6402C98.6465 61.1941 99.0399 59.7559 99.341 58.2989ZM97.4342 53.2423C97.4202 53.0439 97.4928 52.7587 97.6324 52.6439C98.1699 52.201 98.7502 51.8116 99.5861 51.2057C99.552 55.1238 98.4465 58.4908 97.3611 61.814C97.5068 60.4362 97.762 59.0598 97.7681 57.6821C97.7751 56.2028 97.5388 54.7234 97.4342 53.2423ZM81.5417 59.982C80.8568 59.4545 80.1587 58.917 79.469 58.3861C81.4581 56.739 95.3807 49.7019 97.73 49.6383C96.024 51.2294 94.2332 52.9037 92.4344 54.5697C92.2926 54.7011 92.1044 54.7878 91.9272 54.8745C88.4413 56.5913 84.9532 58.305 81.5417 59.982ZM87.555 59.4401C85.8346 60.1204 84.2367 61.138 82.6459 62.1092C81.964 62.5258 81.5067 62.496 80.8384 61.7391C84.0853 59.9198 87.2679 58.1373 90.451 56.3543L90.6313 56.6645C89.917 57.9327 89.005 58.8666 87.555 59.4401ZM81.8288 66.0312C81.3776 65.7522 80.9977 65.5169 80.3605 65.1222C82.8945 63.437 85.2337 61.8805 87.573 60.3241C87.685 60.4708 87.797 60.6172 87.9095 60.7639C86.2574 62.8955 83.6604 63.9741 81.8288 66.0312ZM83.449 66.9902C83.3693 67.0432 83.0511 66.7391 82.7317 66.5258C83.775 65.6085 84.7239 64.7735 85.6736 63.9377C85.362 65.3132 84.5352 66.2638 83.449 66.9902ZM83.8936 74.2467C85.6547 75.5526 85.7331 75.7344 85.2805 77.3531C83.831 76.1725 83.4472 75.3493 83.8936 74.2467ZM81.4375 68.5335C81.1487 68.5335 80.9347 68.2973 80.922 68.0179C80.9097 67.7388 81.1679 67.5018 81.4375 67.5018H83.3452C83.6341 67.5018 83.8485 67.7379 83.8608 68.0179C83.8735 68.2965 83.6148 68.5335 83.3452 68.5335H81.4375ZM79.2886 73.7797C80.2935 75.5184 80.1316 77.7845 78.9722 78.9406C78.1407 76.7691 78.2243 75.0392 79.2886 73.7797ZM77.6207 67.6293C78.5044 66.7694 78.9074 67.6516 79.6453 67.9224C78.5753 68.9834 78.2632 67.9092 77.6207 67.6293ZM77.584 71.9101C78.0387 73.7162 77.2531 75.1851 76.2968 76.6535C75.7809 74.1832 75.7174 72.9763 77.584 71.9101ZM64.3183 56.7893C65.0908 57.3339 65.8693 57.8705 66.6295 58.4321C66.7324 58.5083 66.8033 58.7221 66.7836 58.8561C66.3052 62.0724 67.4313 65.0491 68.1412 68.088C68.1543 68.1445 68.1009 68.2167 67.9679 68.604C66.5652 64.5909 65.2509 60.8323 63.9371 57.0732C64.0636 56.979 64.1909 56.884 64.3183 56.7893ZM59.9282 52.7088C65.7004 52.5567 71.1457 53.8587 76.5025 55.823C76.2106 56.6316 75.7655 56.6509 75.0281 56.4196C72.5357 55.6372 70.024 54.9065 67.4921 54.2626C66.7429 54.072 65.9039 54.2332 65.1017 54.33C68.3272 54.7344 71.3662 55.72 74.3077 57.022C74.7384 57.2125 75.0613 57.6475 75.2832 58.1495H77.1564C75.9599 59.4598 75.9795 59.4028 74.7025 58.9613C72.4543 58.1841 70.1763 57.4968 67.9202 56.7429C67.3241 56.5436 66.7495 56.2654 66.1888 55.9763C64.257 54.9819 62.3353 53.9673 60.4096 52.9598C60.2494 52.8757 60.0884 52.7924 59.9282 52.7088ZM60.0573 55.7257C60.1969 57.0114 60.6411 58.2647 60.9698 59.5277C61.0643 59.8904 61.2241 60.2365 61.3536 60.59C61.2665 60.6264 61.1794 60.6623 61.0919 60.6986C60.0429 58.4588 58.9938 56.2199 57.8401 53.7566C59.8704 54.0414 59.8919 54.2004 60.0573 55.7257ZM77.0439 57.1617C77.952 56.1813 78.1245 56.1686 79.3814 56.9852C78.2378 57.9765 78.124 57.9848 77.0439 57.1617ZM76.9625 60.0402C77.9875 58.5911 78.3875 58.7571 80.9561 60.4941C79.3613 62.2257 78.3144 60.24 76.9625 60.0402ZM76.0207 71.6223V68.8248C77.545 69.9068 77.5393 70.2647 76.0207 71.6223ZM76.6172 65.2458C77.2155 64.1283 77.7958 64.6951 78.4273 65.0942C77.889 66.0759 77.2964 65.7154 76.6172 65.2458ZM80.9981 66.5709C80.2747 67.78 79.7784 66.6244 78.9499 66.613C79.8917 65.4131 80.385 66.234 80.9981 66.5709ZM78.2409 63.9097C79.2882 62.4908 79.9285 62.2901 81.08 63.0664C79.3928 64.7039 79.3928 64.7039 78.2409 63.9097ZM79.6733 49.878C79.5937 49.9555 79.5132 50.0335 79.4331 50.1115C79.1762 49.8688 78.8913 49.6493 78.6681 49.379C78.086 48.6768 77.5302 47.9531 76.966 47.2364C76.0163 46.0295 76.0172 46.0287 77.2536 44.944C78.0575 46.5833 78.8654 48.2304 79.6733 49.878ZM79.8081 45.2879C79.9644 45.5175 79.4269 46.221 79.2037 46.7094L78.7626 46.6428L77.8973 44.5734L78.2418 44.23C78.7858 44.5677 79.479 44.8038 79.8081 45.2879ZM80.423 43.0411C79.9985 42.8746 79.5766 42.7002 79.1075 42.5106C79.8335 41.8062 80.6637 41.7225 82.3168 42.136C81.68 43.533 81.6795 43.5343 80.423 43.0411ZM82.3548 48.8143C81.7373 49.0798 81.2134 49.3054 80.5806 49.577C80.1499 48.8871 79.7425 48.233 79.272 47.4787C79.6838 47.1466 80.0637 46.8409 80.5272 46.4672C81.1255 47.2351 81.6914 47.9623 82.3548 48.8143ZM81.1587 45.5626C82.873 45.7063 83.2787 46.9718 83.8752 48.1183C82.9676 48.3916 81.6279 47.1111 81.1587 45.5626ZM74.0994 51.0581C72.3654 49.2507 70.5833 47.4892 68.8266 45.7032C68.4484 45.3186 68.1057 44.8989 67.5394 44.2624C68.9128 44.1555 69.9885 44.0714 71.056 43.9877C71.4621 46.8816 73.3313 48.7276 75.011 50.6757C75.1716 50.8623 75.5997 50.8172 75.9524 50.7537C74.4841 48.5664 72.4945 46.8216 71.7711 44.2584C73.1856 43.5567 74.134 43.6802 74.3699 44.6755C74.5878 45.595 74.5239 46.582 74.5931 47.6881C74.9121 47.498 75.2684 47.2855 75.6548 47.0546C76.6063 48.1954 77.5617 49.3409 78.5157 50.4838C77.6015 51.2184 76.001 51.4541 75.5607 53.057C78.5319 51.7376 81.4152 50.4571 84.2761 49.1858C84.7414 49.4912 85.1164 49.7369 85.7418 50.1469C85.5593 49.5503 85.4644 49.2384 85.3707 48.9322C86.3874 48.1147 86.8434 48.9847 87.6005 49.6103C86.8066 50.0252 86.1458 50.3484 85.5046 50.7085C83.1505 52.0315 80.7863 53.3391 78.4637 54.716C77.8575 55.0752 77.3612 55.161 76.6934 54.9346C73.1177 53.7202 69.5268 52.5037 65.7319 52.2339C63.6097 52.0836 61.4692 52.2072 59.1767 52.2072C60.8884 51.0607 68.943 51.2925 75.0189 52.6238C74.6333 51.9522 74.4504 51.4243 74.0994 51.0581ZM68.743 67.3813C68.0138 65.9217 66.9197 60.3789 67.1718 59.0209C68.56 59.4436 68.7894 59.84 68.7574 61.1463C68.7044 63.3117 68.743 65.4793 68.743 67.3813ZM73.6486 69.35V65.5511C75.8137 66.8105 75.8215 67.8326 73.6486 69.35ZM71.5908 60.0424C70.7277 59.0905 69.6432 58.3397 68.6576 57.4994C68.6953 57.4193 68.7338 57.3391 68.7718 57.2585C70.8292 58.0978 72.8871 58.9372 74.9629 59.7844C74.7265 60.3311 74.548 60.7433 74.3296 61.2489C75.2828 61.3592 75.6898 59.9951 76.6754 60.6671C77.3214 61.1078 78.0737 61.3934 78.7884 61.7531C77.6326 63.2933 77.2417 63.3529 75.5857 62.7159C74.0377 62.1206 72.719 61.287 71.5908 60.0424ZM82.0734 70.2813C82.0459 70.3462 82.0069 70.4062 81.9614 70.4513C81.8677 70.5446 81.729 70.6025 81.5964 70.6025H80.4834C80.3443 70.6025 80.22 70.5437 80.1193 70.4513C80.0178 70.3584 79.974 70.22 79.9679 70.0864C79.9626 69.9576 80.0296 69.8113 80.1193 69.7211C80.2125 69.6282 80.3517 69.5704 80.4834 69.5704H80.7806C80.7583 69.5616 80.7364 69.5533 80.7141 69.545C80.6244 69.5125 80.5346 69.4827 80.4436 69.4552C80.255 69.3973 80.0629 69.3505 79.8698 69.311C79.5867 69.2536 79.451 68.9334 79.5097 68.6763C79.5744 68.3915 79.8803 68.2619 80.1442 68.3153C80.9679 68.4831 81.8288 68.8024 82.4384 69.403C82.6437 69.6059 82.6262 69.9283 82.4384 70.1333C82.343 70.2367 82.2082 70.284 82.0734 70.2813ZM80.8581 73.152C80.8397 73.1516 80.8209 73.1489 80.8016 73.1489C80.6616 73.1472 80.5386 73.0907 80.4375 72.9974C80.3355 72.9045 80.2922 72.7661 80.286 72.6325C80.2799 72.5037 80.3473 72.3569 80.4375 72.2675C80.5298 72.1747 80.6703 72.1151 80.8016 72.116C81.2393 72.1203 81.6331 72.3135 82.0161 72.505C82.1351 72.565 82.2126 72.6903 82.2529 72.8134C82.2958 72.9465 82.2638 73.0915 82.2008 73.2111C82.1417 73.3228 82.0122 73.4153 81.8927 73.4481C81.7548 73.4862 81.62 73.4586 81.4957 73.3964C81.3924 73.3447 81.2887 73.2957 81.1837 73.2484C81.0778 73.2068 80.9697 73.173 80.8581 73.152ZM81.2861 74.8386C81.2708 74.8092 81.2546 74.7794 81.2358 74.7518C81.234 74.7505 81.2323 74.7479 81.2323 74.7479C81.1338 74.648 81.087 74.5205 81.0808 74.383C81.0751 74.2454 81.1417 74.1166 81.2323 74.0181C81.3189 73.923 81.4699 73.8665 81.5964 73.8665C81.7281 73.8665 81.869 73.9239 81.9614 74.0181C82.1163 74.1753 82.2354 74.3764 82.2944 74.5902C82.3163 74.669 82.3255 74.7544 82.3334 74.8351C82.3373 74.8754 82.3382 74.9157 82.3351 74.956C82.3277 75.0379 82.3185 75.1233 82.2966 75.2035C82.2734 75.2849 82.2375 75.3634 82.2008 75.4391C82.1426 75.5592 82.0148 75.6363 81.8927 75.6761C81.7596 75.7191 81.6152 75.6875 81.4957 75.624C81.3837 75.5649 81.2913 75.4352 81.2585 75.3156C81.2371 75.2473 81.234 75.1781 81.2493 75.1097C81.2511 75.0611 81.2655 75.0155 81.2848 74.9722C81.2918 74.9529 81.2957 74.9336 81.3005 74.9139V74.8916C81.2962 74.8736 81.2918 74.8561 81.2861 74.8386ZM94.1329 33.9744C93.7303 34.8343 93.4782 35.788 92.9163 36.4937C91.1635 38.6941 89.296 40.803 87.4666 42.9425C87.05 43.4301 86.6084 43.897 86.0491 44.5165C88.6868 44.5003 94.3557 37.404 94.8083 33.7545C96.1177 33.843 97.4394 33.9323 98.7616 34.0221C98.8263 34.1128 98.8907 34.2039 98.9554 34.2951C97.4127 35.8489 95.8569 37.39 94.3316 38.9605C92.8147 40.5209 91.3285 42.111 89.8982 43.8313C96.2192 43.1444 102.465 42.0988 108.774 42.9692C108.785 43.0717 108.796 43.1747 108.807 43.2772C108.685 43.3135 108.559 43.392 108.443 43.3801C102.101 42.7305 96.0556 44.1139 90.1079 46.097C89.1393 46.4199 88.32 46.4571 87.3913 45.9748C86.2701 45.3917 85.067 44.9668 83.7479 44.4091C84.5575 43.4191 85.3291 42.4996 86.0731 41.5582C87.257 40.0622 88.4408 38.5662 89.584 37.0396C90.0098 36.4714 90.3674 35.8397 90.6742 35.1975C91.5009 33.468 92.0182 33.2437 94.1329 33.9744ZM100.209 34.2894C100.866 34.3507 101.513 34.5307 102.163 34.6639L102.305 34.9583C99.7113 37.1666 97.1169 39.3749 94.5229 41.5832C94.5872 41.6809 94.6516 41.7781 94.7159 41.8754C95.133 41.652 95.6004 41.4899 95.9584 41.195C97.983 39.53 100.103 37.9538 101.943 36.1008C103.055 34.9811 103.981 34.8059 105.485 35.6999C103.455 37.4925 101.474 39.243 99.4924 40.9935C99.5472 41.0912 99.6027 41.1894 99.6579 41.287C100.107 41.0685 100.625 40.9305 100.993 40.6164C102.443 39.3801 103.953 38.1855 105.225 36.7807C105.98 35.9475 106.585 35.7135 107.534 36.2099C107.808 36.3535 108.108 36.4477 108.657 36.6711C107.006 38.1189 105.438 39.3468 104.055 40.7565C103.119 41.7124 102.102 42.041 100.829 42.1281C97.8289 42.3345 94.8358 42.6512 91.6856 42.9372C92.0795 42.5163 92.4213 42.1518 92.7618 41.786C94.9798 39.4034 97.1913 37.0159 99.4246 34.6486C99.6119 34.4501 99.9572 34.2662 100.209 34.2894ZM102.826 29.8785C104.055 30.9741 105.284 32.0697 106.682 33.3155C105.161 33.2214 103.868 32.0903 102.826 29.8785ZM107.219 31.2093C107.01 30.8597 106.863 30.5465 107.453 30.4532C106.466 30.0594 105.926 29.288 105.604 28.3023C107.471 28.2502 108.12 28.7185 108.587 30.5159C108.173 30.4856 107.795 30.458 107.418 30.43C109.397 31.4047 109.397 31.4047 109.803 32.5419C109.495 32.5954 109.201 32.6466 108.906 32.6979C109.998 33.2122 111.038 33.7751 111.246 35.2667C110.14 34.978 109.145 34.6902 108.593 33.574C108.188 32.7588 107.685 31.9926 107.219 31.2093ZM104.435 26.7297C104.487 26.5969 104.539 26.4642 104.592 26.3323C105.567 26.3323 106.543 26.3731 107.515 26.3218C108.898 26.2495 110.277 26.0901 111.66 26.0125C111.954 25.9963 112.419 26.0774 112.535 26.2728C114.705 29.9639 117.058 33.5661 118.311 37.7212C118.321 37.7562 118.304 37.7996 118.28 38.0086C116.031 37.5065 113.842 36.8998 111.95 35.5738C111.503 35.2606 111.375 34.4922 110.964 33.655C112.843 34.0384 114.439 34.3643 116.036 34.6898C116.064 34.5973 116.09 34.5053 116.118 34.4129C115.565 34.239 115.017 34.0445 114.458 33.8955C113.5 33.6402 112.543 33.3532 111.568 33.1916C110.636 33.0365 110.227 32.4784 109.902 31.3955C111.239 31.6877 112.401 31.9413 113.564 32.1954L113.601 32.0644C112.6 31.7832 111.609 31.4468 110.592 31.2347C109.371 30.9798 108.91 30.0896 108.339 28.9112C109.912 29.2148 111.254 29.4733 112.595 29.7322C112.611 29.6424 112.626 29.553 112.642 29.4632C110.39 28.846 108.131 28.2563 105.894 27.5913C105.368 27.4349 104.919 27.0236 104.435 26.7297ZM119.115 40.5971C118.135 39.8844 117.186 39.1935 116.18 38.4606C118.713 38.5193 118.903 38.6582 119.115 40.5971ZM49.2989 50.6884C46.9912 46.5465 43.3315 43.6872 40.0504 40.4858C40.1152 40.4324 40.1852 40.3461 40.2097 40.3575C43.0921 41.7199 45.9259 43.2229 48.14 45.5402C49.439 46.9004 49.5528 48.8148 49.2989 50.6884ZM27.5178 50.5276C30.7066 49.0246 33.918 47.6119 37.5606 47.8572C34.2126 48.7473 30.8654 49.6375 27.5178 50.5276ZM24.2214 49.5845C23.5238 49.9774 22.8349 50.3888 22.1461 50.7979C24.0398 49.5678 25.9326 48.3338 27.8382 47.123C28.0417 46.9933 28.3542 47.0354 28.6535 47.1291C27.1756 47.9461 25.6928 48.7548 24.2214 49.5845ZM18.5061 51.8909C19.202 49.4688 22.013 47.5816 25.0766 47.4953C22.8791 48.9659 20.6926 50.4282 18.5061 51.8909ZM14.4727 55.5076C15.232 53.0653 16.0439 50.6612 18.9328 49.5402C17.3616 51.6425 15.9174 53.5748 14.4727 55.5076ZM65.1096 27.2514C65.2632 27.1143 65.5485 27.0319 65.7542 27.0613C67.3324 27.2821 68.9062 27.5366 70.4813 27.7801C70.4997 27.8288 70.5176 27.8765 70.5365 27.9243L63.4618 29.3383C63.4023 29.2293 63.3428 29.1202 63.2832 29.0111C63.8885 28.4206 64.4811 27.8152 65.1096 27.2514ZM95.1124 14.6706L95.133 14.4962C96.4858 14.3867 97.8381 14.2776 99.1913 14.1672C99.3095 14.158 99.4286 14.1501 99.5454 14.1296C100.271 14.003 101.198 13.5316 101.677 13.8163C102.621 14.3775 103.315 15.3588 104.038 16.4123L95.1124 14.6706ZM177.884 49.5437C175.148 47.9036 172.326 46.3769 169.138 45.91C167.435 45.6603 166.494 44.5327 165.353 43.5321C169.612 43.9996 173.621 45.3742 177.678 46.727C177.43 46.2806 177.139 45.8937 176.753 45.7277C173.018 44.1205 169.188 42.7887 165.08 42.6586C163.084 42.5956 162.046 41.1337 160.632 40.1722C165.736 40.1963 170.768 40.4924 175.838 41.9122C175.584 40.8223 174.867 40.6194 174.205 40.4591C169.975 39.434 165.67 38.8071 161.34 39.2553C159.105 39.4862 157.599 38.4878 155.981 37.312C161.755 36.6273 167.538 36.8424 173.36 36.9007C172.872 36.5178 172.352 36.2366 171.819 36.209C169.083 36.067 166.342 35.8629 163.608 35.9273C161.04 35.9878 158.433 36.1354 155.933 36.6663C154.298 37.0137 153.205 36.2462 151.885 35.8336C152.27 35.6031 152.641 35.4656 153.024 35.3819C155.775 34.7787 158.51 34.076 161.286 33.6178C165.008 33.0036 168.701 31.8747 172.625 32.495C172.266 32.1437 171.859 31.8108 171.4 31.7087C170.788 31.5725 170.132 31.5523 169.502 31.5922C163.732 31.9637 158.038 32.874 152.625 34.911C150.642 35.6575 148.91 35.4336 147.015 34.9793C152.9 32.4324 159.044 30.7682 165.32 29.4667C164.769 29.3383 164.221 29.2551 163.706 29.3506C157.833 30.4396 152.078 31.9107 146.726 34.6709C146.415 34.8308 146.063 34.9973 145.726 35.0043C144.15 35.0398 142.572 35.0205 140.788 35.0205C143.769 32.9493 146.873 31.3885 149.997 29.8864C153.134 28.3772 156.345 27.0205 159.524 25.5973C159.504 25.4882 159.484 25.3791 159.464 25.2705C158.571 25.4317 157.625 25.4562 156.792 25.776C151.211 27.9212 145.801 30.469 141.033 34.0957C139.135 35.5396 137.082 35.4165 135.006 35.7915C140.456 31.1773 146.569 27.7543 153.265 25.3738C152.454 24.8907 152.354 24.8101 150.966 25.3445C145.364 27.5015 140.098 30.2789 135.678 34.405C134.391 35.6066 133.123 36.5721 131.38 36.9554C130.292 37.1946 129.264 37.7098 128.209 38.1014C130.055 35.3118 132.545 33.277 135.146 31.4008C137.725 29.5399 140.433 27.8568 143.083 26.0953C142.052 26.2631 141.036 26.5527 140.137 27.0525C136.503 29.0716 133.205 31.5755 130.254 34.4918C129.087 35.6434 128.234 37.1136 127.234 38.4357C127.118 38.5894 127.005 38.7677 126.847 38.865C125.199 39.8756 123.542 40.8722 121.888 41.8723C122.161 41.1674 122.523 40.5239 122.984 39.9623C126.456 35.7328 130.406 31.9974 134.689 28.6002C135.592 27.884 136.374 27.014 137.212 26.2149C137.131 26.1041 137.05 25.9933 136.97 25.8824C132.03 27.6277 127.426 30.0572 123.05 32.9804C124.787 29.5841 127.599 27.321 130.828 25.5131C133.988 23.7451 137.16 21.9898 140.813 21.2477C140.18 21.0379 139.56 20.938 138.984 21.0541C135.983 21.659 133.325 23.1112 130.664 24.5406C129.876 24.9638 129.107 25.4233 128.329 25.8667L128.184 25.6485C130.06 24.0106 131.563 21.8194 134.135 21.161C137.205 20.3746 140.323 19.7697 143.439 19.1831C145.13 18.8646 146.858 18.7463 148.57 18.5378C148.564 18.4423 148.558 18.3468 148.551 18.2509C146.383 17.7283 144.224 18.3043 142.084 18.5759C139.889 18.8545 137.723 19.371 135.545 19.7832C136.713 18.887 138.009 18.2851 139.205 17.5254C140.894 16.4522 142.638 16.3637 144.559 16.6962C147.529 17.2109 150.53 17.5522 153.522 17.9311C154.052 17.9977 154.603 17.8917 155.144 17.8649C155.151 17.7055 155.159 17.546 155.166 17.3866C151.645 16.4202 147.956 16.2572 144.425 15.2904C149.671 14.0008 154.561 15.414 159.429 17.2166C156.673 14.6719 153.019 14.5742 149.61 13.6328C150.893 13.3305 152.192 13.0138 153.446 13.1404C156.82 13.483 159.818 15.0153 162.837 16.4395C163.209 16.6151 163.578 16.7991 163.95 16.9787C164.007 16.8626 164.065 16.747 164.122 16.6309C161.957 14.8852 159.231 14.1615 156.794 12.8438C157.348 12.765 157.892 12.7347 158.4 12.8535C160.177 13.2683 161.939 13.7445 163.713 14.1734C164.073 14.2601 164.46 14.2399 164.834 14.2689C164.863 14.1204 164.892 13.9718 164.922 13.8233C162.532 12.7128 159.979 12.1131 157.367 11.5568C158.835 11.3294 160.303 11.1025 161.771 10.8747C161.755 10.7332 161.739 10.5917 161.723 10.4502C158.029 10.2207 154.37 11.6965 150.563 10.6802C153.396 9.43217 156.229 8.18455 159.063 6.9365C159.052 6.83925 159.04 6.74288 159.029 6.64563C158.567 6.68505 158.051 6.60357 157.651 6.7823C154.758 8.07197 151.908 9.46064 149.004 10.7267C146.354 11.8818 143.653 12.9222 140.975 14.0135L140.834 13.713C144.618 10.3841 148.74 7.52132 153.188 5.02084C152.689 4.19596 152.099 4.37644 151.583 4.67038C149.859 5.65384 148.19 6.73718 146.447 7.68428C142.114 10.0376 139.127 14.0424 135.118 16.8245C131.975 19.0065 129.201 21.7195 126.32 24.149C126.435 23.7639 126.5 23.1616 126.776 22.6806C128.179 20.2362 129.391 17.6262 131.13 15.442C134.147 11.6536 137.506 8.13812 140.709 4.49735C141.112 4.04001 141.439 3.51608 141.801 3.02325C141.684 2.9006 141.566 2.77881 141.449 2.65659C140.894 2.972 140.244 3.18972 139.801 3.62034C137.833 5.52899 135.866 7.44378 134.008 9.45801C130.622 13.1294 127.593 17.0646 125.799 21.8005C125.441 22.7468 124.66 23.6965 125.466 24.8162C125.551 24.9336 125.405 25.2832 125.284 25.4728C124.742 26.3179 124.171 27.1441 123.611 27.9773C123.514 27.488 123.627 27.1165 123.745 26.7459C124.843 23.3009 125.958 19.8608 127.018 16.404C127.165 15.9243 127.038 15.3601 127.038 14.8348C126.903 14.809 126.768 14.7827 126.633 14.7569C126.413 15.1914 126.141 15.6072 125.982 16.0627C123.987 21.7651 122.012 27.4735 120.025 33.1776C119.746 33.981 119.303 34.7231 119.747 35.6513C119.932 36.039 119.777 36.5892 119.777 37.0658C119.093 35.7757 118.621 34.4808 118.22 33.1644C118.145 32.9195 118.329 32.5752 118.441 32.2966C119.033 30.8238 119.819 29.4032 120.205 27.8805C121.103 24.3413 121.913 20.772 122.566 17.1798C123.155 13.939 123.496 10.6522 123.928 7.38333C124.015 6.72798 124.068 6.03978 123.119 5.61485C121.825 14.5418 120.593 23.3881 117.802 32.2046C117.192 30.9601 116.827 29.9289 116.227 29.0589C115.367 27.8082 115.472 26.8742 116.378 25.6117C119.056 21.8807 120.242 17.539 120.937 13.0615C121.315 10.6298 121.606 8.18236 121.847 5.73313C121.902 5.17372 121.589 4.57751 121.446 3.99839C121.328 4.0273 121.21 4.05534 121.092 4.08381C120.428 11.9094 119.042 19.5318 114.927 26.607C114.328 25.44 113.827 24.4649 113.542 23.9103C114.445 21.9999 115.42 20.5017 115.868 18.8594C116.629 16.0719 117.128 13.2048 117.601 10.3482C117.892 8.59108 117.959 6.79369 118.059 5.01076C118.095 4.37776 118.039 3.67422 117.244 3.36451C116.656 10.0713 115.876 16.6388 113.134 23.0578C112.317 21.9179 111.664 21.069 111.095 20.167C110.944 19.9269 110.928 19.4661 111.054 19.2059C112.742 15.721 113.569 11.9966 113.957 8.18893C114.177 6.03189 114.081 3.83631 114.018 1.66131C114.006 1.22981 113.498 0.81277 113.219 0.38916C113.125 0.449613 113.032 0.509628 112.938 0.570082C113.353 6.82655 111.997 12.7829 110.076 18.8944C109.364 18.1554 108.82 17.6783 108.395 17.1115C108.174 16.8158 108.005 16.3247 108.084 15.9839C109.017 11.9151 109.13 7.78942 109.003 3.64662C108.985 3.05698 108.867 2.46209 108.72 1.8891C108.675 1.71212 108.381 1.59954 108.041 1.331C108.263 6.34117 107.871 11.0644 107.175 16.001C106.647 15.5318 106.296 15.2269 105.951 14.9133C104.657 13.7357 103.398 12.5166 102.059 11.3934C101.494 10.9203 100.796 10.5541 100.099 10.3065C99.348 10.0393 98.1169 10.7507 98.0469 9.19868C98.0443 9.14655 97.8434 9.06463 97.7331 9.06156C96.7085 9.03177 96.2332 8.24851 95.7076 7.56425C94.9816 6.61846 94.3233 5.6188 93.5806 4.68615C93.3482 4.39353 92.9368 4.24371 92.6069 4.02774L92.2598 4.39177C93.09 5.75066 93.9198 7.10954 94.8713 8.66686C94.2796 8.43907 93.8848 8.29626 93.4975 8.13549C92.5443 7.74079 91.6016 7.31718 90.6396 6.94658C90.0321 6.71177 89.4895 6.74769 89.2999 7.47094C90.63 8.05883 91.869 8.68263 93.1627 9.15706C94.4292 9.62097 95.7518 9.93288 97.0499 10.3114L96.9856 10.6535C94.1098 10.961 91.2339 11.2668 88.2618 10.1791C88.433 11.5581 89.4557 11.6124 90.2742 11.7517C92.7753 12.1767 95.2568 12.0387 97.6941 11.2769C97.9734 11.1901 98.3756 11.1362 98.5904 11.2729C99.4089 11.7925 100.174 12.3966 100.959 12.9691L100.849 13.2604C96.7313 13.9618 92.5683 13.3187 88.3988 13.511C88.7958 13.8295 89.2142 13.999 89.6466 14.0472C90.9276 14.1896 92.1381 14.5497 93.3797 14.8848C96.8516 15.8218 100.436 16.3786 104.001 16.9157C105.065 17.0764 105.702 17.4803 106.351 18.4502C101.293 18.7183 96.4705 18.4423 91.6624 17.2092C92.0786 17.6547 92.5443 18.0485 93.076 18.1878C97.344 19.3027 101.665 19.718 106.058 19.06C106.465 18.9991 107.038 18.9273 107.287 19.1441C108.01 19.7754 108.608 20.5503 109.442 21.4772C104.501 22.2815 99.903 21.5894 95.2739 21.3918C95.6157 21.7274 95.9755 21.96 96.3663 22.0358C97.2219 22.2018 98.0898 22.3512 98.9581 22.3963C102.085 22.5601 105.221 23.0048 108.332 22.2368C109.921 21.8443 109.95 21.8513 110.754 23.7088C106.05 23.5651 101.48 23.4262 96.909 23.2865C97.2525 23.6062 97.6307 23.8463 98.0324 23.8958C102.063 24.3935 106.101 24.6839 110.152 24.128C111.387 23.9589 111.526 24.0487 111.823 25.4439H99.2277C99.2145 25.5469 99.201 25.6489 99.1878 25.7515C100.022 25.8654 100.859 25.9622 101.69 26.098C102.473 26.2263 103.448 25.8386 103.995 26.642C103.962 26.7476 103.93 26.8528 103.897 26.9579C103.315 26.8615 102.732 26.7647 102.149 26.6679C102.122 26.7682 102.095 26.8681 102.067 26.968C102.53 27.1336 103.001 27.279 103.453 27.4691C103.883 27.6496 104.463 27.7648 104.682 28.1017C105.928 30.0182 107.086 31.9917 108.274 33.9459C108.205 34.0222 108.136 34.0984 108.067 34.1742C107.717 33.8658 107.34 33.581 107.021 33.2428C106.369 32.5516 105.85 31.6877 105.096 31.1467C102.138 29.0221 99.113 26.9886 96.0989 24.9415C95.7794 24.7246 95.3772 24.6055 94.996 24.5104C94.733 24.4447 94.4397 24.4981 94.1592 24.4981C98.2968 26.2802 101.118 29.5885 104.135 32.676C103.556 32.5389 103.044 32.2975 102.621 31.9483C99.7831 29.6064 96.6985 27.6557 93.3727 26.0958C92.4436 25.6603 91.4528 25.3335 90.4615 25.0633C90.0667 24.9555 89.5936 25.1364 89.156 25.1859C89.1739 25.2832 89.1914 25.3804 89.2094 25.4772C93.7421 26.6455 97.4613 29.3086 101.166 32.0259C99.9922 31.7762 98.9134 31.3259 97.8355 30.8733C94.9487 29.6621 92.0874 28.382 89.1612 27.2733C88.075 26.8615 86.8412 26.8054 85.6652 26.6819C85.288 26.6429 84.8783 26.9088 84.4836 27.035C88.956 27.4923 92.8169 29.3344 96.6573 31.2356C95.2245 30.8251 93.8524 30.2092 92.4178 29.8342C90.9652 29.4544 89.4566 29.2687 87.962 29.0808C86.4263 28.888 84.8805 28.7562 83.3347 28.6712C81.9093 28.5932 80.4414 28.2445 79.0799 28.8876L79.0843 29.2122L88.0124 29.9608C88.0146 30.0493 88.0168 30.1383 88.0185 30.2267C87.6491 30.2618 87.2806 30.3091 86.9112 30.3301C84.6503 30.4576 82.3833 30.5163 80.1302 30.727C78.8392 30.8475 77.4575 30.9246 76.524 31.9952C80.2979 31.6873 84.0599 31.381 87.822 31.0744C87.8294 31.1782 87.8373 31.2816 87.8448 31.3854C86.674 31.7276 85.4683 31.9816 84.3387 32.4285C81.385 33.5955 78.4422 34.7984 75.541 36.0885C74.3567 36.6155 73.2915 37.4088 72.1672 38.0716C71.9746 38.1855 71.7628 38.2823 71.5479 38.341C71.0463 38.4773 70.4542 38.4584 70.0445 38.7265C68.1197 39.9882 66.2514 41.3361 64.3441 42.6262C64.0229 42.8435 63.6767 43.4507 63.2062 42.7826L70.1763 36.5954C68.9053 37.2928 67.6725 38.0607 66.4663 38.8685C65.2811 39.6623 64.0614 40.4227 62.9703 41.3344C61.9064 42.2249 60.9864 43.2881 60.0035 44.2755C59.9173 44.1945 59.831 44.113 59.7444 44.0324C60.3855 43.0341 61.112 42.0804 61.6455 41.0277C62.341 39.6561 63.1782 38.5434 64.7997 38.274C64.8264 38.2701 64.8347 38.1592 64.8597 38.0694C64.3721 38.1128 63.8951 38.1557 63.4185 38.1982C63.3918 38.0554 63.3664 37.9131 63.3401 37.7702C64.6522 37.5985 65.9643 37.4277 67.2764 37.256C67.2611 37.1583 67.2458 37.061 67.23 36.9638H56.6869C56.9123 36.0022 57.2349 35.6421 58.2078 35.813C61.5291 36.3956 64.8597 36.0837 68.1762 35.6513C68.5351 35.6044 68.8743 35.4021 69.4813 35.1751C65.3669 35.2969 61.5943 35.4082 57.8222 35.5199C58.1325 34.642 58.1741 33.7514 59.2306 34.062C62.692 35.0796 66.1647 34.4896 69.6318 34.0988C70.0051 34.0568 70.3544 33.8049 70.715 33.6507L70.6362 33.3944C66.7753 33.7663 62.9143 34.3227 58.905 33.6459C59.7995 32.1398 60.6494 31.2063 62.4937 31.5821C65.6242 32.2208 68.7486 31.6434 71.8354 31.0437C72.4928 30.9163 73.1015 30.5356 73.7318 30.2719C73.6893 30.1606 73.646 30.0493 73.6031 29.9381C69.638 30.9649 65.6282 31.4008 61.4061 31.0586C61.9379 30.1619 62.509 29.73 63.4084 29.7488C64.0014 29.7615 64.6106 29.7322 65.1888 29.6086C68.855 28.8245 72.5146 28.011 76.1739 27.1962C76.2881 27.1712 76.3761 27.0293 76.4772 26.9417C72.9628 26.7402 69.4909 27.2637 65.7945 26.6355C67.107 25.3988 68.0795 24.7474 69.7995 25.1995C71.4678 25.638 73.3317 25.4225 75.1029 25.3427C76.1546 25.2946 76.3677 24.9726 76.4605 24.1516C74.0946 25.0133 71.7072 24.7785 69.2725 24.2971C71.4442 23.495 73.6153 22.6929 75.7874 21.8903C75.7537 21.7716 75.7213 21.6529 75.6889 21.5342C74.0211 20.7159 72.8263 22.6653 71.2345 22.5593C71.7768 21.3016 72.9177 20.4281 72.9339 18.9741C72.5422 19.1239 72.2604 19.3557 72.0135 19.619C70.8533 20.8596 70.3807 22.7783 68.4353 23.2479C68.3731 23.2628 68.2891 23.357 68.2856 23.4179C68.2375 24.2428 67.7267 24.1508 67.1101 24.1424C66.6326 24.1359 66.0746 24.3426 65.6855 24.6326C64.6999 25.366 63.7787 26.1878 62.8526 26.9978C62.1799 27.5865 61.5401 28.213 60.8858 28.8223C60.7501 28.7851 60.6149 28.7474 60.4788 28.7097L59.7339 16.846C59.4284 17.2065 59.1851 17.6297 59.2017 18.0424C59.3356 21.3349 59.2853 24.662 59.7811 27.9028C60.0429 29.6108 59.3776 30.3455 58.1785 31.3307C56.5998 26.243 55.4755 21.2315 55.7766 15.9252C54.9009 16.4552 54.6645 16.8771 54.6908 18.2855C54.7775 22.8545 55.416 27.3184 57.3233 31.5313C57.4506 31.8125 57.5115 32.2681 57.3701 32.5021C56.9027 33.2739 56.3289 33.9818 55.637 34.9329C53.3205 29.5311 52.7034 24.0058 51.98 18.4471C51.7126 18.9531 51.4592 19.4976 51.5239 20.0005C51.9638 23.4258 52.3148 26.8751 53.0233 30.2473C53.3704 31.8988 54.4304 33.3979 55.1477 34.9754C55.2497 35.1992 55.3451 35.5243 55.2567 35.7179C54.9398 36.4179 54.5429 37.0816 54.0772 37.9402C52.4014 34.8396 51.0889 31.8585 50.4246 28.6515C49.7641 25.4584 49.2871 22.2268 48.7295 19.0131C48.6398 19.0004 48.5492 18.9886 48.4595 18.9763C48.4039 19.6816 48.27 20.3913 48.3116 21.0909C48.3755 22.1602 48.5444 23.2243 48.6963 24.287C49.3921 29.1666 50.4154 33.9319 53.4789 37.9875C53.6234 38.1781 53.7415 38.5443 53.6558 38.727C53.0697 39.9685 52.4259 41.1828 51.6837 42.6345C49.3247 35.1839 48.3348 27.7372 46.9509 20.3348C46.6524 20.8499 46.4892 21.369 46.5575 21.8562C47.073 25.5158 47.4962 29.1977 48.224 32.8166C48.8249 35.8055 49.7812 38.7248 50.6272 41.6612C50.867 42.4926 51.692 43.1423 51.1336 44.1923C50.7327 44.9466 50.5506 45.8171 50.2705 46.6358C50.0701 45.772 50.2779 44.8985 50.0368 44.1752C48.3365 39.0836 46.5478 34.0213 44.774 28.9546C44.6545 28.6125 44.4283 28.3076 44.2519 27.986C44.1079 28.0185 43.9644 28.0513 43.8208 28.0846C43.876 28.6155 43.8453 29.1736 44.0003 29.6739C44.8445 32.4096 45.7369 35.1296 46.6052 37.8574C46.6866 38.115 46.7111 38.391 46.7618 38.6578C46.6507 38.6968 46.5395 38.7357 46.4288 38.7743C46.0314 37.9849 45.2217 37.1237 45.343 36.4245C45.4948 35.5506 45.3377 34.8694 45.0576 34.1632C42.5166 27.7705 37.9112 22.9544 32.9635 18.4112C32.6296 18.1041 32.1197 17.9894 31.6921 17.7852L31.4689 18.0743C31.7556 18.466 32.0068 18.8905 32.3346 19.244C33.7692 20.7877 35.2581 22.2815 36.6674 23.8485C39.5209 27.021 42.1726 30.3446 43.9504 34.2732C44.1543 34.7244 44.2922 35.2054 44.4602 35.6737C44.1075 35.636 43.9224 35.5072 43.7512 35.3613C41.6991 33.6112 39.6679 31.8353 37.5882 30.1185C36.7764 29.4487 35.7943 28.9818 35.0017 28.2931C34.0463 27.4625 33.3154 26.3468 32.2996 25.6139C29.4054 23.5243 26.4259 21.5513 23.4503 19.5782C23.0809 19.3338 22.5294 19.3649 22.0629 19.2689C22.0135 19.4153 21.9644 19.562 21.915 19.7088C25.4972 21.8741 29.0172 24.1218 32.0331 27.0433C31.0387 26.8033 30.0881 26.5189 29.1796 26.1348C27.6552 25.4899 26.1589 24.7785 24.649 24.0995C22.55 23.1564 20.4585 22.1961 18.342 21.2946C17.9358 21.122 17.4299 21.1868 16.9695 21.1421L16.9647 21.3629C19.2821 22.3906 21.5994 23.4183 23.9168 24.446C23.8717 24.6199 23.8258 24.7938 23.7803 24.9678C20.7788 24.7404 17.777 24.5126 14.7756 24.2857C14.7672 24.4145 14.7585 24.5433 14.7502 24.6721C15.9117 24.8508 17.0728 25.0291 18.4155 25.2359C16.1261 25.8566 13.9353 26.1321 11.9956 27.1541C12.0302 27.2943 12.0647 27.4341 12.0993 27.5743C14.2561 27.0806 16.4128 26.5864 18.5691 26.0918L18.6479 26.4283C16.6623 27.3811 14.6762 28.3334 12.6901 29.2858C12.7545 29.4185 12.8192 29.5521 12.8836 29.6853C13.1869 29.5486 13.4849 29.3979 13.7952 29.2779C16.0159 28.4228 18.2138 27.4976 20.4707 26.7511C21.9054 26.2763 23.3995 26.3525 25.0473 27.1962C24.5536 27.268 24.3264 27.2816 24.1089 27.3359C22.073 27.8476 20.0287 28.3282 18.0129 28.9077C17.5109 29.0523 17.1026 29.521 16.6505 29.8408C16.7073 29.9262 16.7638 30.0112 16.8203 30.0966C19.8957 28.517 23.2424 28.0802 26.6136 27.8336C27.4403 27.7731 28.2964 28.1139 29.1389 28.2699C29.1236 28.3847 29.1082 28.499 29.0929 28.6133C26.1536 29.1732 23.1356 29.3611 20.2703 30.3919C20.6987 30.6162 21.1106 30.6604 21.5097 30.6092C24.0709 30.2802 26.6351 29.9674 29.1875 29.5762C31.4799 29.2244 35.0179 30.4042 36.6551 32.17C33.0957 31.5287 29.5757 30.6534 25.9357 30.9504C26.3042 31.1809 26.695 31.212 27.0793 31.2825C30.5901 31.9278 34.1119 32.5226 37.6061 33.2503C39.811 33.7089 41.1297 35.4778 42.5853 37.0255C41.9026 36.8039 41.3144 36.4118 40.6767 36.1349C38.425 35.1567 36.1663 34.1921 33.8835 33.2888C33.4616 33.1219 32.9167 33.2652 32.4287 33.2652C32.4375 33.3607 32.4453 33.4566 32.4537 33.5525C40.0767 35.8725 46.6017 40.2011 47.0371 43.2268C39.2434 38.6091 36.8525 37.454 35.308 37.652C39.8526 41.7825 44.7661 45.4272 48.1133 50.6157C46.3627 49.3567 44.3464 48.6799 42.9464 46.7239C40.1323 42.7931 36.1518 40.0815 31.8738 37.8622C31.4825 37.6599 31.005 37.6248 30.5678 37.5118C35.1973 40.2852 39.45 43.399 42.9617 47.4804C41.3275 47.0717 39.7646 46.5517 38.2105 46.005C37.9978 45.9305 37.807 45.7457 37.6486 45.5726C35.4975 43.2268 32.9416 41.4062 30.1398 39.9523C27.9585 38.8199 25.7103 37.8123 23.4542 36.8345C22.9864 36.6317 22.3561 36.8052 21.8003 36.8052C27.7699 39.052 36.0284 43.781 37.0932 45.9744C35.5838 45.5748 34.1522 45.4478 32.9775 44.8297C30.9481 43.7621 29.1507 42.2543 27.1248 41.1775C24.4284 39.7442 21.6191 38.5185 18.83 37.266C18.117 36.9458 17.3082 36.612 16.2907 37.1894C22.0152 39.1414 27.1204 41.9008 32.0768 44.9918C29.5761 44.8398 27.1651 45.0089 24.7659 45.492C24.3615 45.5735 23.8958 45.5008 23.487 45.393C20.4602 44.5953 17.4693 43.6281 14.4088 43.0003C12.0131 42.5088 9.53641 42.3883 7.08818 42.1943C6.55643 42.1522 5.99405 42.5 5.44567 42.6683C11.4813 42.6941 17.1126 44.2939 22.7828 45.6822C21.5263 46.3712 20.3788 46.596 18.9236 46.2994C14.6526 45.4276 10.3041 45.641 5.9796 46.051C5.59535 46.0874 5.23034 46.3196 4.85615 46.461C4.87584 46.5693 4.89554 46.6775 4.91523 46.7861C9.73423 46.6402 14.5545 46.4352 19.3626 46.9872C18.0544 48.0806 16.7629 48.8008 14.9454 48.6172C11.4043 48.2589 7.88777 48.7736 4.42419 49.5564C3.80097 49.697 3.00926 49.7527 2.81319 50.8369C7.00415 49.6773 11.154 49.3851 15.3887 49.4833C14.3217 50.2135 13.5689 51.4042 12.1396 51.4546C8.70749 51.5759 5.51307 52.654 2.3589 53.881C1.9265 54.0497 1.56763 54.4089 1.17418 54.68C1.22757 54.7939 1.28096 54.9078 1.3348 55.0217C4.60975 53.7746 7.91053 52.6352 11.4047 52.2773C10.5168 53.3396 9.53772 54.079 8.14248 54.3037C5.55421 54.7195 3.26178 55.9513 1.04025 57.2857C0.6328 57.5301 0.343512 57.9717 -4.57764e-05 58.3221L0.240226 58.571C2.84689 57.3295 5.45398 56.0884 8.06064 54.847C7.41379 56.5646 6.77088 58.0654 5.20102 58.9692C4.33403 59.469 3.67274 60.3478 2.96987 61.103C2.71822 61.3728 2.61537 61.7815 2.44468 62.1267C2.51427 62.164 2.58386 62.2008 2.65388 62.238C4.04649 60.9383 5.43867 59.6385 6.83171 58.3383C6.91925 58.4058 7.00634 58.4733 7.09474 58.5403C6.39581 60.2983 5.69688 62.0558 4.99839 63.8137L5.3472 63.9846C6.57175 63.3476 6.46102 61.7798 7.38184 60.7192C7.31882 61.7588 7.26543 62.6437 7.21247 63.529L7.67157 63.6249C7.83482 63.2762 8.08253 62.9415 8.14599 62.5753C8.41164 61.0478 8.59546 59.5062 8.8598 57.9783C9.20117 55.9995 10.0178 55.009 11.9361 54.2144C10.6813 56.6159 9.39767 58.9319 9.29658 61.6431C9.54691 61.4955 9.65195 61.2966 9.73685 61.0885C10.6743 58.7681 11.5978 56.4415 12.5505 54.1272C12.9781 53.0903 13.797 52.4788 14.9353 52.0648C12.5978 56.9527 11.8157 60.2466 12.7755 61.478C13.0678 60.5637 13.2411 59.6718 13.6271 58.8842C14.5243 57.0517 15.6513 55.3853 17.3888 54.2004C18.7171 53.2944 19.9967 52.3189 21.2944 51.3687C20.7648 51.8751 20.223 52.3697 19.7285 52.9089C19.3959 53.2712 19.1569 53.7198 18.7521 54.3103C19.1761 54.2578 19.2768 54.277 19.3215 54.235C22.3758 51.3766 25.9221 49.3028 29.6886 47.5312C31.2545 46.7944 32.7254 47.0866 34.2699 47.349C34.0437 47.5326 33.8047 47.6311 33.5557 47.6802C29.6807 48.4503 26.1519 50.0545 22.8533 52.1857C22.3855 52.4884 22.0441 52.986 21.6441 53.3934C21.7176 53.4605 21.792 53.5284 21.866 53.5958C23.2975 52.7307 24.7291 51.8659 26.1611 51.0007C26.1913 51.0533 26.2215 51.1059 26.2517 51.158C26.0832 51.4331 25.9143 51.7082 25.6118 52.2019C26.1059 52.0223 26.3572 51.9413 26.6009 51.8401C30.5849 50.1912 34.7176 49.0662 38.9808 48.4599C39.7086 48.357 40.4912 48.64 41.2487 48.7451C41.2277 48.8411 41.2067 48.9379 41.1857 49.0342C35.1907 49.8486 29.9056 51.6609 29.233 53.2187C29.4728 53.163 29.6562 53.1381 29.8269 53.0776C32.6322 52.0893 35.4293 51.0778 38.2416 50.1101C41.4711 48.9988 44.3797 49.6261 46.747 51.6342C45.3132 51.4673 43.637 51.0857 41.9722 51.1282C40.243 51.1725 38.5099 51.5579 36.8044 51.9198C35.2118 52.258 33.4883 52.3263 32.2186 53.5774C36.4556 52.7657 40.6111 51.5045 44.9823 51.8033C44.9145 51.9934 44.8274 52.081 44.7281 52.1003C39.8014 53.0575 35.7002 55.7191 31.651 58.4746C31.3184 58.7002 31.1267 59.133 30.8694 59.469C30.942 59.5351 31.0142 59.6017 31.0869 59.6679C31.2523 59.5916 31.4296 59.5347 31.581 59.4379C33.1198 58.4531 34.606 57.3746 36.2008 56.4928C38.944 54.9762 41.6544 53.3374 44.7994 52.7469C46.4266 52.442 48.0936 52.014 49.5956 53.2007C49.6407 53.2366 49.7471 53.1963 49.9033 53.1862C49.9926 52.9383 50.0919 52.6636 50.2215 52.3044C50.6272 52.428 50.9979 52.541 51.1104 52.5751C50.8513 53.7645 50.5073 54.7317 50.4513 55.7152C50.2372 59.4883 50.0766 63.2662 49.9672 67.0445C49.7291 75.3134 49.137 83.5859 50.1125 91.8491C50.1563 92.2202 50.1545 92.727 49.9445 92.9754C49.0066 94.0833 47.8941 94.9896 46.3885 95.1907C45.1688 95.3536 44.9635 95.192 45.0257 93.9553C45.4979 84.6604 45.9268 75.3625 46.5137 66.075C46.7575 62.2179 47.3535 58.3835 47.7895 54.5381C47.6083 54.6818 47.5168 54.8513 47.4595 55.0318C47.315 55.4852 47.1684 55.9391 47.0542 56.4008C45.2883 63.5334 44.6541 70.8333 43.9884 78.1162C43.2129 86.602 42.8641 95.1184 43.2199 103.636C43.416 108.322 43.8637 113.002 44.3657 117.666C44.6712 120.507 45.3088 123.312 45.7671 126.139C45.862 126.723 46.1062 127.332 45.2445 127.736C41.0553 129.702 36.7689 131.381 32.2016 132.215C30.6475 132.498 29.0531 132.556 27.4819 132.752C27.19 132.789 26.9178 132.99 26.6373 133.116C26.811 133.403 26.9314 133.867 27.1708 133.94C27.7651 134.122 28.4159 134.203 29.0404 134.186C34.0104 134.052 38.7038 132.758 43.1359 130.57C45.9876 129.162 48.8556 127.853 51.913 126.94C54.068 126.295 56.1941 126.254 58.3907 126.577C61.66 127.057 64.2785 128.867 66.953 130.592C69.522 132.249 72.0928 133.906 74.7012 135.5C75.2631 135.844 75.9896 135.917 76.7196 136.139C73.6289 133.868 70.6752 131.679 67.7009 129.518C65.0212 127.571 62.2749 125.753 58.9435 125.07C58.6752 125.016 58.3491 124.595 58.2835 124.294C57.0134 118.464 55.7455 112.634 54.5499 106.789C53.9569 103.888 53.51 100.956 52.9472 97.7547C53.2829 98.0697 53.4111 98.1564 53.4951 98.2742C55.5311 101.136 57.911 103.667 60.4472 106.106C67.4598 112.85 75.9515 116.284 85.4517 116.825C96.9339 117.48 106.455 113.335 113.206 103.658C113.97 102.562 114.786 101.503 115.578 100.427C115.704 100.468 115.83 100.507 115.957 100.548C113.963 110.26 111.969 119.973 109.968 129.72C107.292 130.091 104.946 131.056 102.79 132.435C100.849 133.676 98.966 135.011 97.1024 136.366C94.15 138.513 91.4444 141.019 88.0561 142.523C87.9822 142.556 87.9537 142.692 87.8574 142.863C89.3971 142.871 90.6676 142.278 91.8344 141.542C94.4879 139.866 97.0797 138.092 99.706 136.373C102.399 134.61 105.068 132.827 108.22 131.906C113.701 130.303 118.733 131.963 123.527 134.241C128.826 136.759 134.098 139.241 139.939 140.154C141.89 140.46 143.89 140.461 145.871 140.557C146.245 140.575 146.726 140.491 146.984 140.26C147.253 140.017 147.313 139.541 147.466 139.166C147.158 139.073 146.855 138.92 146.542 138.897C145.476 138.815 144.392 138.872 143.34 138.709C137.329 137.776 131.616 135.887 126.139 133.244C124.606 132.504 124.605 132.567 124.863 130.869C125.602 126.039 126.56 121.225 126.978 116.366C127.538 109.873 127.86 103.346 127.943 96.8295C128.059 87.836 127.436 78.8644 126.52 69.9121C125.78 62.6726 124.988 55.448 123.307 48.3535C123.141 47.65 122.891 46.9657 122.68 46.2722L122.389 46.3441C122.523 47.4717 122.667 48.5988 122.79 49.7277C123.293 54.3086 123.864 58.8833 124.266 63.4729C124.641 67.7485 124.868 72.0389 125.097 76.3267C125.337 80.8545 125.493 85.3872 125.709 89.9172C125.739 90.5691 125.489 90.9704 124.87 90.9406C123.541 90.8762 122.209 90.764 120.89 90.5835C120.005 90.4626 119.708 89.8936 119.79 88.9649C120.01 86.4701 120.26 83.967 120.268 81.4661C120.283 76.8532 120.165 72.2386 120.046 67.6267C119.895 61.7399 119.772 55.8497 119.459 49.9704C119.353 47.9868 119.687 45.8302 118.062 43.9395C118.715 43.8449 119.159 43.7805 119.626 43.7126C119.726 44.0898 119.808 44.4017 119.921 44.8266C120.3 44.6623 120.568 44.5033 120.858 44.428C121.715 44.2037 122.585 43.8248 123.441 43.8458C125.805 43.9036 128.085 44.4849 130.218 45.517C134.19 47.4397 138.149 49.3904 141.675 52.0959C141.841 52.2234 142.068 52.2738 142.367 52.4039C142.43 51.1939 141.535 50.794 140.869 50.3682C136.086 47.3091 131.284 44.2712 125.576 43.1081C128.176 42.4063 130.715 43.1585 133.244 43.5983C135.822 44.0464 138.366 44.7018 140.924 45.2664C140.835 44.8748 140.657 44.5743 140.412 44.5011C134.828 42.8374 129.253 40.9997 123.317 43.017C124.156 42.4466 125.043 42.0125 125.871 41.4851C127.544 40.4192 129.323 40.2287 131.247 40.5603C135.541 41.3002 139.644 42.6126 143.582 44.467C143.839 44.5879 144.126 44.6457 144.558 44.7837C144.461 44.4389 144.462 44.2602 144.373 44.1647C144.187 43.9636 143.979 43.7551 143.737 43.6377C139.432 41.549 134.93 40.1297 130.034 39.7258C131.376 38.9762 131.886 38.8856 133.193 39.0967C138.384 39.9374 143.438 41.2555 148.257 43.4042C148.339 43.441 148.468 43.3762 148.763 43.3276C148.395 42.9026 148.108 42.5701 147.82 42.2381L148 42.0239C149.734 43.0936 151.468 44.1638 153.193 45.227C153.253 44.4157 153.222 44.262 152.126 43.5527C148.158 40.9843 143.93 39.0174 139.254 38.1246C138.842 38.0462 138.437 37.931 138.028 37.8325C138.037 37.7422 138.047 37.6524 138.056 37.5626C139.657 37.5626 141.409 37.1359 142.83 37.6415C147.313 39.2378 151.305 41.8013 154.985 44.8266C155.487 45.2393 155.932 45.7212 156.403 46.1715C156.52 46.0909 156.638 46.0098 156.755 45.9297C156.485 45.4771 156.309 44.9142 155.928 44.5914C154.566 43.4366 153.21 42.249 151.714 41.287C149.524 39.8791 147.216 38.6556 144.958 37.3541C145.774 37.4693 146.601 37.6664 147.326 38.0546C151.662 40.3767 155.481 43.4353 159.247 46.5618C161.481 48.417 162.984 50.7252 163.536 53.6155C163.596 53.9314 163.78 54.2231 163.907 54.5267C164.035 54.5009 164.164 54.4755 164.292 54.4496C164.836 52.5156 164.174 50.6336 163.63 48.8108C163.075 46.9477 162.235 45.1701 161.505 43.3184C162.523 43.823 163.545 44.3807 164.034 45.5604C165.204 48.3846 166.359 51.2158 167.522 54.0431C167.629 54.3046 167.751 54.56 167.867 54.818C167.983 54.7729 168.1 54.7287 168.216 54.684C167.982 51.4467 166.337 48.6755 164.875 45.7558C167.399 46.8097 168.428 48.7175 168.701 51.1768C168.873 52.7153 169.105 54.2503 169.4 55.77C169.482 56.1962 169.878 56.5624 170.13 56.9567C170.251 56.4805 170.477 56.0021 170.468 55.5286C170.453 54.744 170.286 53.9625 170.183 53.1797C170.681 53.9888 171.008 54.8382 171.371 55.6714C172.093 57.3264 172.191 57.4044 173.158 57.2195C172.292 55.098 171.431 52.9887 170.569 50.8798C170.66 50.8102 170.752 50.741 170.844 50.6722C172.55 52.2654 174.257 53.8582 175.963 55.4515C176.054 55.3959 176.146 55.3407 176.237 55.285C175.992 54.8404 175.837 54.2963 175.484 53.9678C174.091 52.6715 172.637 51.4405 171.201 50.1912C170.995 50.012 170.66 49.9113 170.559 49.6927C170.114 48.7346 169.733 47.7468 169.218 46.4996C172.475 48.0556 175.627 49.5621 178.828 51.0914C179.089 50.2179 178.427 49.8692 177.884 49.5437Z" fill="#02374E"/>
</g>
</svg>
