<svg width="79" height="77" viewBox="0 0 79 77" fill="none" xmlns="http://www.w3.org/2000/svg">
<mask id="mask0_2_408" style="mask-type:luminance" maskUnits="userSpaceOnUse" x="0" y="0" width="79" height="77">
<path d="M0 0.0477905H78.7898V76.8857H0V0.0477905Z" fill="white"/>
</mask>
<g mask="url(#mask0_2_408)">
<path fill-rule="evenodd" clip-rule="evenodd" d="M73.765 53.7458C71.7976 51.9274 69.9144 49.9959 67.8103 48.3309C66.9106 47.6193 66.8766 47.0435 67.0814 46.1384C67.566 43.996 68.1088 41.8564 68.401 39.6868C68.5685 38.4405 69.0283 37.6763 70.2542 37.3935C72.2534 36.9321 74.254 36.473 76.2633 36.0571C77.0318 35.8983 77.5039 35.6698 77.1693 34.7797C77.0222 34.3899 77.0299 33.9479 76.9268 33.5392C76.3961 31.435 75.8749 29.3283 75.289 27.2388C75.2063 26.9442 74.8176 26.5644 74.5228 26.5193C72.0054 26.1327 69.4785 25.8034 66.9516 25.4787C65.0826 25.2384 65.0896 25.2502 64.5845 23.5133C64.1405 21.9841 63.4379 20.6327 61.9892 19.7376C61.7804 19.6089 61.6706 19.0292 61.7774 18.7556C62.8297 16.0607 63.8852 13.3643 65.06 10.7191C65.4279 9.89054 65.4268 9.50861 64.552 9.08664C61.7255 7.72344 58.921 6.31375 56.1447 4.85471C55.4147 4.47099 54.993 4.54466 54.4403 5.12291C53.1745 6.44821 51.8406 7.71199 50.5167 8.98365C50.0196 9.4607 49.2929 9.7972 48.9915 10.3619C48.4455 11.3839 47.7827 11.1604 46.9291 10.9276C44.8747 10.3672 42.9246 9.30299 40.6614 9.6488C40.431 9.6842 40.0056 9.34984 39.8853 9.09093C38.7603 6.66992 37.6649 4.23569 36.6031 1.78714C36.3544 1.21426 36.064 1.10983 35.4635 1.25145C32.8536 1.86796 30.2404 2.48269 27.6063 2.98799C26.7768 3.14713 26.6144 3.47756 26.6312 4.20636C26.6908 6.77148 26.6916 9.33768 26.7256 11.9039C26.7329 12.4943 26.6115 12.9088 25.9736 13.2192C23.9054 14.2258 21.8499 15.2682 19.8603 16.4151C19.1873 16.8031 18.7338 16.9429 17.9899 16.5993C15.5083 15.4531 12.9884 14.3839 10.4593 13.3411C10.1678 13.2209 9.52407 13.3279 9.38179 13.5428C7.72755 16.0443 6.14096 18.5886 4.52988 21.1176C4.10269 21.7882 4.37882 22.1164 4.96547 22.6014C7.21368 24.4613 9.37521 26.422 11.5623 28.3524C12.0371 28.7712 12.1951 29.264 11.7708 29.8143C10.2943 31.7293 9.89273 33.9397 10.0057 36.2563C10.0496 37.1614 9.79032 37.5386 8.85695 37.8187C6.08025 38.6519 3.35219 39.6392 0.812121 40.4964C1.67783 43.8644 2.54463 47.0821 3.30794 50.3235C3.47983 51.0537 3.72415 51.2951 4.46368 51.2393C6.84392 51.0594 9.23074 50.9536 11.6092 50.7523C12.3856 50.6865 12.8852 50.8588 13.1866 51.5826C14.0768 53.7204 15.3708 55.5714 17.3762 56.98C17.0316 57.9151 16.7112 58.8296 16.3587 59.7314C15.5891 61.6986 14.8039 63.6601 14.0234 65.6234C13.7656 66.2724 13.9386 66.7252 14.5976 67.0452C15.7215 67.5913 16.8744 68.103 17.9226 68.7689C19.6917 69.8922 21.3887 71.1248 23.2968 72.4355C25.1928 70.5852 27.1359 68.7807 28.9595 66.8675C29.7872 65.9996 30.5703 65.8587 31.6931 66.1623C33.3151 66.6011 34.9921 67.1382 36.6394 67.1189C38.4377 67.0978 38.6059 67.2423 39.2833 69.0117C40.0813 71.098 40.9774 73.1489 41.8234 75.1976C45.216 74.5811 48.5874 73.9682 52.0359 73.3413C51.9899 72.6561 51.9811 72.0421 51.9013 71.4374C51.6161 69.2828 51.3162 67.13 51.002 64.979C50.8572 63.9909 51.2697 63.5782 52.2576 63.2778C53.47 62.9099 54.6042 62.2672 55.7292 61.6665C56.4534 61.2802 57.1212 60.7828 57.7759 60.2872C58.6196 59.6488 59.5245 59.5594 60.4988 59.8816C62.9793 60.7016 65.4689 61.4984 67.9288 62.3738C68.6987 62.6481 69.123 62.4754 69.4456 61.802C69.7692 61.1272 70.09 60.4492 70.4473 59.7908C71.5486 57.7625 72.6674 55.7434 73.765 53.7458ZM52.371 65.1563C52.6475 66.762 53.0004 68.6731 53.2963 70.592C53.4397 71.52 53.5176 72.4626 53.5475 73.401C53.5742 74.2353 53.2396 74.7299 52.2514 74.8994C48.9846 75.4605 45.7372 76.1313 42.4857 76.7754C41.0765 77.0547 40.7642 76.8605 40.284 75.5363C39.4753 73.3062 38.6286 71.0891 37.7585 68.8816C37.67 68.6563 37.3317 68.4252 37.0749 68.3788C35.0945 68.0215 33.1089 67.685 31.1159 67.4039C30.7334 67.3499 30.1844 67.4375 29.9269 67.6789C27.9889 69.4941 26.0983 71.3583 24.206 73.2197C23.3275 74.0844 23.0327 73.9778 22.0393 73.2973C19.8263 71.7803 17.5151 70.3996 15.2347 68.9781C14.5102 68.5261 13.6613 68.2178 13.0538 67.6539C12.7141 67.3381 12.5363 66.5768 12.6618 66.1137C13.0077 64.8349 13.5158 63.5925 14.0282 62.3638C14.5665 61.0725 15.2099 59.8237 15.7453 58.532C15.8455 58.291 15.7629 57.8129 15.5767 57.6494C13.9587 56.2294 12.8223 54.5061 11.972 52.566C11.8557 52.3011 11.4036 52.0164 11.1052 52.0146C9.34668 52.0042 7.5882 52.0844 5.82935 52.1137C4.8371 52.1301 3.83972 52.158 2.85478 52.0693C2.60242 52.0461 2.244 51.6313 2.18109 51.3448C1.50776 48.273 0.904287 45.1868 0.237542 42.1142C-0.180865 40.1874 -0.225486 40.1692 1.62297 39.4114C3.76255 38.5349 5.91091 37.6756 8.08268 36.8814C8.65214 36.6736 8.77905 36.39 8.74357 35.8833C8.613 34.0366 8.93925 32.2553 9.64586 30.5492C9.91285 29.9034 10.3082 29.3083 10.6421 28.6957C8.51206 26.8176 6.30884 24.8986 4.13744 22.9468C3.51458 22.3872 3.39206 21.5893 3.71939 20.8752C4.584 18.9899 5.49397 17.121 6.4811 15.2951C6.99021 14.3538 7.71182 13.5242 8.32005 12.6327C8.80977 11.9132 9.43373 11.636 10.279 11.9933C12.7364 13.0318 15.1883 14.0835 17.6516 15.1084C18.4789 15.4524 19.2177 15.6026 20.1075 14.9507C21.6081 13.8507 23.2891 12.9896 24.8599 11.9772C25.116 11.8123 25.3314 11.3853 25.3339 11.0778C25.3526 8.7065 25.3065 6.33484 25.2963 3.96319C25.289 2.31819 25.4246 2.34823 27.0683 2.07538C29.6138 1.65233 32.1301 1.0519 34.6464 0.47365C37.4103 -0.161819 36.9821 -0.415721 38.2658 2.14118C39.3473 4.29433 40.3037 6.50757 41.3739 8.82201C43.6429 8.34711 45.7851 9.1696 47.9817 9.87409C49.652 8.12682 51.3436 6.39492 52.9902 4.62333C54.5647 2.9297 55.0917 2.82957 57.1991 3.8627C59.3347 4.90978 61.4977 5.90285 63.6369 6.94242C64.5571 7.38979 65.452 7.88686 66.3496 8.37822C67.0481 8.7605 67.2025 9.37094 66.9135 10.0504C65.628 13.074 64.3164 16.0865 63.0766 18.9591C63.9002 19.8843 64.7824 20.646 65.3591 21.5872C65.9235 22.5087 66.1762 23.6127 66.588 24.6959C69.1237 24.8833 71.8222 25.1232 74.5264 25.262C75.5176 25.3124 76.2385 25.6128 76.4908 26.5583C77.268 29.4692 78.0452 32.3819 78.7229 35.3161C78.9716 36.3947 78.5331 36.9529 77.2998 37.2844C75.9268 37.6531 74.5085 37.8573 73.118 38.1677C72.2457 38.3626 71.3906 38.6301 70.523 38.8475C69.9978 38.9791 69.7539 39.2516 69.7846 39.8145C69.917 42.2501 69.3004 44.5656 68.6036 46.8754C68.5235 47.1408 68.8106 47.6404 69.0765 47.8567C70.9323 49.3715 72.8239 50.8445 74.7119 52.3211C75.7535 53.1357 75.7678 53.4987 75.1526 54.6169C73.7397 57.1849 72.374 59.779 71.0409 62.3877C70.2085 64.0167 68.9723 64.4326 67.2467 63.791C64.7677 62.8698 62.2397 62.072 59.7169 61.2706C59.3921 61.1672 58.9364 61.2799 58.6024 61.4261C58.123 61.6357 57.7042 61.9758 57.2518 62.2465C55.7135 63.168 54.1715 64.0835 52.371 65.1563Z" fill="#02374E"/>
</g>
</svg>
